<mxfile host="app.diagrams.net" modified="2021-08-24T20:11:19.507Z" agent="5.0 (Windows NT 10.0; Win64; x64) AppleWebKit/537.36 (KHTML, like Gecko) Chrome/92.0.4515.159 Safari/537.36" etag="bVrnuqA5QpjgPPZgWF4x" version="14.9.8" type="github">
  <diagram id="C5RBs43oDa-KdzZeNtuy" name="Page-1">
    <mxGraphModel dx="1038" dy="547" grid="1" gridSize="10" guides="1" tooltips="1" connect="1" arrows="1" fold="1" page="1" pageScale="1" pageWidth="827" pageHeight="1169" math="0" shadow="0">
      <root>
        <mxCell id="WIyWlLk6GJQsqaUBKTNV-0" />
        <mxCell id="WIyWlLk6GJQsqaUBKTNV-1" parent="WIyWlLk6GJQsqaUBKTNV-0" />
        <mxCell id="zkfFHV4jXpPFQw0GAbJ--6" value="Employee" style="swimlane;fontStyle=0;align=center;verticalAlign=top;childLayout=stackLayout;horizontal=1;startSize=26;horizontalStack=0;resizeParent=1;resizeLast=0;collapsible=1;marginBottom=0;rounded=0;shadow=0;strokeWidth=1;fontSize=14;" parent="WIyWlLk6GJQsqaUBKTNV-1" vertex="1">
          <mxGeometry x="430" y="290" width="160" height="120" as="geometry">
            <mxRectangle x="130" y="380" width="160" height="26" as="alternateBounds" />
          </mxGeometry>
        </mxCell>
        <mxCell id="zkfFHV4jXpPFQw0GAbJ--17" value="Departmant" style="swimlane;fontStyle=0;align=center;verticalAlign=top;childLayout=stackLayout;horizontal=1;startSize=26;horizontalStack=0;resizeParent=1;resizeLast=0;collapsible=1;marginBottom=0;rounded=0;shadow=0;strokeWidth=1;fontSize=14;" parent="WIyWlLk6GJQsqaUBKTNV-1" vertex="1">
          <mxGeometry x="100" y="150" width="160" height="60" as="geometry">
            <mxRectangle x="550" y="140" width="160" height="26" as="alternateBounds" />
          </mxGeometry>
        </mxCell>
        <mxCell id="1Qx_H6vKPzvI1-khlyoZ-16" value="WorkOffice" style="swimlane;fontStyle=0;childLayout=stackLayout;horizontal=1;startSize=26;horizontalStack=0;resizeParent=1;resizeParentMax=0;resizeLast=0;collapsible=1;marginBottom=0;strokeColor=#000000;fontSize=14;" vertex="1" parent="WIyWlLk6GJQsqaUBKTNV-1">
          <mxGeometry x="100" y="310" width="160" height="80" as="geometry" />
        </mxCell>
        <mxCell id="1Qx_H6vKPzvI1-khlyoZ-27" value="University" style="swimlane;fontStyle=0;childLayout=stackLayout;horizontal=1;startSize=26;horizontalStack=0;resizeParent=1;resizeParentMax=0;resizeLast=0;collapsible=1;marginBottom=0;strokeColor=#000000;fontSize=14;" vertex="1" parent="WIyWlLk6GJQsqaUBKTNV-1">
          <mxGeometry x="344" y="50" width="166" height="52" as="geometry" />
        </mxCell>
        <mxCell id="1Qx_H6vKPzvI1-khlyoZ-30" value="Class" style="swimlane;fontStyle=0;align=center;verticalAlign=top;childLayout=stackLayout;horizontal=1;startSize=26;horizontalStack=0;resizeParent=1;resizeLast=0;collapsible=1;marginBottom=0;rounded=0;shadow=0;strokeWidth=1;fontSize=14;" vertex="1" parent="WIyWlLk6GJQsqaUBKTNV-1">
          <mxGeometry x="580" y="140" width="160" height="50" as="geometry">
            <mxRectangle x="550" y="140" width="160" height="26" as="alternateBounds" />
          </mxGeometry>
        </mxCell>
        <mxCell id="1Qx_H6vKPzvI1-khlyoZ-32" value="EmployeeType" style="swimlane;fontStyle=0;align=center;verticalAlign=top;childLayout=stackLayout;horizontal=1;startSize=26;horizontalStack=0;resizeParent=1;resizeLast=0;collapsible=1;marginBottom=0;rounded=0;shadow=0;strokeWidth=1;fontSize=14;" vertex="1" parent="WIyWlLk6GJQsqaUBKTNV-1">
          <mxGeometry x="440" y="520" width="160" height="80" as="geometry">
            <mxRectangle x="580" y="290" width="160" height="26" as="alternateBounds" />
          </mxGeometry>
        </mxCell>
        <mxCell id="1Qx_H6vKPzvI1-khlyoZ-36" style="edgeStyle=orthogonalEdgeStyle;rounded=0;orthogonalLoop=1;jettySize=auto;html=1;entryX=0.5;entryY=0;entryDx=0;entryDy=0;fontColor=#000000;" edge="1" parent="WIyWlLk6GJQsqaUBKTNV-1" target="zkfFHV4jXpPFQw0GAbJ--17">
          <mxGeometry relative="1" as="geometry">
            <mxPoint x="344" y="89" as="sourcePoint" />
          </mxGeometry>
        </mxCell>
        <mxCell id="1Qx_H6vKPzvI1-khlyoZ-38" style="edgeStyle=orthogonalEdgeStyle;rounded=0;orthogonalLoop=1;jettySize=auto;html=1;fontColor=#000000;" edge="1" parent="WIyWlLk6GJQsqaUBKTNV-1" target="1Qx_H6vKPzvI1-khlyoZ-30">
          <mxGeometry relative="1" as="geometry">
            <mxPoint x="510" y="89" as="sourcePoint" />
          </mxGeometry>
        </mxCell>
        <mxCell id="1Qx_H6vKPzvI1-khlyoZ-45" value="" style="line;strokeWidth=2;direction=south;html=1;fontSize=14;fontColor=#000000;verticalAlign=top;" vertex="1" parent="WIyWlLk6GJQsqaUBKTNV-1">
          <mxGeometry x="175" y="200" width="10" height="110" as="geometry" />
        </mxCell>
        <mxCell id="1Qx_H6vKPzvI1-khlyoZ-46" value="1" style="text;html=1;align=center;verticalAlign=middle;resizable=0;points=[];autosize=1;strokeColor=none;fontSize=14;fontColor=#000000;" vertex="1" parent="WIyWlLk6GJQsqaUBKTNV-1">
          <mxGeometry x="180" y="200" width="20" height="20" as="geometry" />
        </mxCell>
        <mxCell id="1Qx_H6vKPzvI1-khlyoZ-47" value="&lt;font style=&quot;font-size: 30px&quot;&gt;*&lt;/font&gt;" style="text;html=1;align=center;verticalAlign=middle;resizable=0;points=[];autosize=1;strokeColor=none;fontSize=14;fontColor=#000000;" vertex="1" parent="WIyWlLk6GJQsqaUBKTNV-1">
          <mxGeometry x="390" y="380" width="30" height="30" as="geometry" />
        </mxCell>
        <mxCell id="1Qx_H6vKPzvI1-khlyoZ-58" value="&lt;br&gt;" style="endArrow=block;endFill=1;html=1;edgeStyle=orthogonalEdgeStyle;align=left;verticalAlign=top;fontSize=14;fontColor=#000000;entryX=1;entryY=0.5;entryDx=0;entryDy=0;" edge="1" parent="WIyWlLk6GJQsqaUBKTNV-1">
          <mxGeometry x="-1" relative="1" as="geometry">
            <mxPoint x="430" y="349" as="sourcePoint" />
            <mxPoint x="260" y="349" as="targetPoint" />
            <Array as="points" />
          </mxGeometry>
        </mxCell>
        <mxCell id="1Qx_H6vKPzvI1-khlyoZ-59" value="1" style="edgeLabel;resizable=0;html=1;align=left;verticalAlign=bottom;fontSize=19;" connectable="0" vertex="1" parent="1Qx_H6vKPzvI1-khlyoZ-58">
          <mxGeometry x="-1" relative="1" as="geometry">
            <mxPoint x="-16" as="offset" />
          </mxGeometry>
        </mxCell>
        <mxCell id="1Qx_H6vKPzvI1-khlyoZ-60" value="" style="line;strokeWidth=2;html=1;fontSize=19;fontColor=#000000;verticalAlign=top;" vertex="1" parent="WIyWlLk6GJQsqaUBKTNV-1">
          <mxGeometry x="260" y="370" width="170" height="10" as="geometry" />
        </mxCell>
        <mxCell id="1Qx_H6vKPzvI1-khlyoZ-61" value="1" style="text;html=1;align=center;verticalAlign=middle;resizable=0;points=[];autosize=1;strokeColor=none;fontSize=14;fontColor=#000000;" vertex="1" parent="WIyWlLk6GJQsqaUBKTNV-1">
          <mxGeometry x="260" y="388" width="20" height="20" as="geometry" />
        </mxCell>
        <mxCell id="1Qx_H6vKPzvI1-khlyoZ-62" value="&lt;font style=&quot;font-size: 30px&quot;&gt;*&lt;/font&gt;" style="text;html=1;align=center;verticalAlign=middle;resizable=0;points=[];autosize=1;strokeColor=none;fontSize=14;fontColor=#000000;" vertex="1" parent="WIyWlLk6GJQsqaUBKTNV-1">
          <mxGeometry x="185" y="120" width="30" height="30" as="geometry" />
        </mxCell>
        <mxCell id="1Qx_H6vKPzvI1-khlyoZ-63" value="" style="line;strokeWidth=2;direction=south;html=1;fontSize=19;fontColor=#000000;verticalAlign=top;" vertex="1" parent="WIyWlLk6GJQsqaUBKTNV-1">
          <mxGeometry x="480" y="414" width="10" height="106" as="geometry" />
        </mxCell>
        <mxCell id="1Qx_H6vKPzvI1-khlyoZ-64" value="1" style="text;html=1;align=center;verticalAlign=middle;resizable=0;points=[];autosize=1;strokeColor=none;fontSize=14;fontColor=#000000;" vertex="1" parent="WIyWlLk6GJQsqaUBKTNV-1">
          <mxGeometry x="460" y="500" width="20" height="20" as="geometry" />
        </mxCell>
        <mxCell id="1Qx_H6vKPzvI1-khlyoZ-65" value="&lt;font style=&quot;font-size: 30px&quot;&gt;*&lt;/font&gt;" style="text;html=1;align=center;verticalAlign=middle;resizable=0;points=[];autosize=1;strokeColor=none;fontSize=14;fontColor=#000000;" vertex="1" parent="WIyWlLk6GJQsqaUBKTNV-1">
          <mxGeometry x="450" y="420" width="30" height="30" as="geometry" />
        </mxCell>
        <mxCell id="1Qx_H6vKPzvI1-khlyoZ-66" value="&lt;br&gt;" style="endArrow=block;endFill=1;html=1;edgeStyle=orthogonalEdgeStyle;align=left;verticalAlign=top;fontSize=19;fontColor=#000000;" edge="1" parent="WIyWlLk6GJQsqaUBKTNV-1">
          <mxGeometry x="-1" relative="1" as="geometry">
            <mxPoint x="540" y="414" as="sourcePoint" />
            <mxPoint x="540" y="520" as="targetPoint" />
          </mxGeometry>
        </mxCell>
        <mxCell id="1Qx_H6vKPzvI1-khlyoZ-67" value="1" style="edgeLabel;resizable=0;html=1;align=left;verticalAlign=bottom;fontSize=18;" connectable="0" vertex="1" parent="1Qx_H6vKPzvI1-khlyoZ-66">
          <mxGeometry x="-1" relative="1" as="geometry">
            <mxPoint x="10" y="36" as="offset" />
          </mxGeometry>
        </mxCell>
        <mxCell id="1Qx_H6vKPzvI1-khlyoZ-68" value="1" style="text;html=1;align=center;verticalAlign=middle;resizable=0;points=[];autosize=1;strokeColor=none;fontSize=14;fontColor=#000000;" vertex="1" parent="WIyWlLk6GJQsqaUBKTNV-1">
          <mxGeometry x="320" y="66" width="20" height="20" as="geometry" />
        </mxCell>
        <mxCell id="1Qx_H6vKPzvI1-khlyoZ-69" value="1" style="text;html=1;align=center;verticalAlign=middle;resizable=0;points=[];autosize=1;strokeColor=none;fontSize=14;fontColor=#000000;" vertex="1" parent="WIyWlLk6GJQsqaUBKTNV-1">
          <mxGeometry x="520" y="66" width="20" height="20" as="geometry" />
        </mxCell>
        <mxCell id="1Qx_H6vKPzvI1-khlyoZ-70" value="&lt;font style=&quot;font-size: 30px&quot;&gt;*&lt;/font&gt;" style="text;html=1;align=center;verticalAlign=middle;resizable=0;points=[];autosize=1;strokeColor=none;fontSize=14;fontColor=#000000;" vertex="1" parent="WIyWlLk6GJQsqaUBKTNV-1">
          <mxGeometry x="630" y="110" width="30" height="30" as="geometry" />
        </mxCell>
      </root>
    </mxGraphModel>
  </diagram>
</mxfile>
